<svg id="line" fill="#ffffff" viewBox="0 0 32 32" xmlns="http://www.w3.org/2000/svg"><path d="m27.9248 30.75h-23.8496c-1.5576 0-2.8252-1.2676-2.8252-2.8257v-21.8486c0-1.5581 1.2676-2.8257 2.8252-2.8257h23.8496c1.5576 0 2.8252 1.2676 2.8252 2.8257v21.8486c0 1.5581-1.2676 2.8257-2.8252 2.8257zm-23.8496-26c-.7305 0-1.3252.5947-1.3252 1.3257v21.8486c0 .731.5947 1.3257 1.3252 1.3257h23.8496c.7305 0 1.3252-.5947 1.3252-1.3257v-21.8486c0-.731-.5947-1.3257-1.3252-1.3257z"/><path d="m30 10.75h-28c-.4141 0-.75-.3359-.75-.75s.3359-.75.75-.75h28c.4141 0 .75.3359.75.75s-.3359.75-.75.75z"/><path d="m16 6.75c-.4141 0-.75-.3359-.75-.75v-4c0-.4141.3359-.75.75-.75s.75.3359.75.75v4c0 .4141-.3359.75-.75.75z"/><path d="m6 6.75c-.4141 0-.75-.3359-.75-.75v-4c0-.4141.3359-.75.75-.75s.75.3359.75.75v4c0 .4141-.3359.75-.75.75z"/><path d="m26 6.75c-.4141 0-.75-.3359-.75-.75v-4c0-.4141.3359-.75.75-.75s.75.3359.75.75v4c0 .4141-.3359.75-.75.75z"/><path d="m10 18.75h-4c-.4141 0-.75-.3359-.75-.75v-4c0-.4141.3359-.75.75-.75h4c.4141 0 .75.3359.75.75v4c0 .4141-.3359.75-.75.75zm-3.25-1.5h2.5v-2.5h-2.5z"/><path d="m18 18.75h-4c-.4141 0-.75-.3359-.75-.75v-4c0-.4141.3359-.75.75-.75h4c.4141 0 .75.3359.75.75v4c0 .4141-.3359.75-.75.75zm-3.25-1.5h2.5v-2.5h-2.5z"/><path d="m26 18.75h-4c-.4141 0-.75-.3359-.75-.75v-4c0-.4141.3359-.75.75-.75h4c.4141 0 .75.3359.75.75v4c0 .4141-.3359.75-.75.75zm-3.25-1.5h2.5v-2.5h-2.5z"/><path d="m10 26.75h-4c-.4141 0-.75-.3359-.75-.75v-4c0-.4141.3359-.75.75-.75h4c.4141 0 .75.3359.75.75v4c0 .4141-.3359.75-.75.75zm-3.25-1.5h2.5v-2.5h-2.5z"/><path d="m18 26.75h-4c-.4141 0-.75-.3359-.75-.75v-4c0-.4141.3359-.75.75-.75h4c.4141 0 .75.3359.75.75v4c0 .4141-.3359.75-.75.75zm-3.25-1.5h2.5v-2.5h-2.5z"/><path d="m26 26.75h-4c-.4141 0-.75-.3359-.75-.75v-4c0-.4141.3359-.75.75-.75h4c.4141 0 .75.3359.75.75v4c0 .4141-.3359.75-.75.75zm-3.25-1.5h2.5v-2.5h-2.5z"/></svg>