<svg fill="#ffffff" id="Layer_1" enable-background="new 0 0 512 512" height="512" viewBox="0 0 512 512" width="512" xmlns="http://www.w3.org/2000/svg"><g><path d="m472.212 122.51-208.712-120.5c-4.641-2.68-10.359-2.68-15 0l-208.712 120.5c-4.641 2.679-7.5 7.631-7.5 12.99v241c0 5.359 2.859 10.311 7.5 12.99l208.712 120.5c4.641 2.68 10.359 2.68 15 0l208.712-120.5c4.641-2.679 7.5-7.631 7.5-12.99v-241c0-5.359-2.858-10.311-7.5-12.99zm-22.5 245.33-193.712 111.839-193.712-111.839v-223.68l193.712-111.839 193.712 111.839z"/><path d="m184.767 192.8c-8.284 0-15 6.716-15 15v59.961l-27.387-65.73c-2.329-5.59-7.791-9.231-13.846-9.231h-16.067c-8.284 0-15 6.716-15 15v96.4c.738 19.881 29.269 19.866 30 0v-59.96l27.387 65.729c2.329 5.59 7.791 9.231 13.846 9.231h16.067c8.284 0 15-6.716 15-15v-96.4c0-8.284-6.716-15-15-15z"/><path d="m226 207.8v96.4c.738 19.881 29.269 19.866 30 0v-25.167h32.133c19.881-.738 19.866-29.269 0-30h-32.133v-26.233h48.2c19.881-.738 19.866-29.269 0-30h-63.2c-8.284 0-15 6.716-15 15z"/><path d="m344.367 222.8h17.133v81.4c.738 19.881 29.269 19.866 30 0v-81.4h17.133c19.881-.738 19.866-29.269 0-30h-64.267c-19.88.738-19.865 29.269.001 30z"/></g></svg>