<svg fill="#ffffff" height="512" viewBox="0 0 32 32" width="512" xmlns="http://www.w3.org/2000/svg"><g clip-rule="evenodd" fill="#ffffff" fill-rule="evenodd"><path d="m15 3.75c-1.2426 0-2.25 1.00736-2.25 2.25s1.0074 2.25 2.25 2.25 2.25-1.00736 2.25-2.25-1.0074-2.25-2.25-2.25zm-3.75 2.25c0-2.07107 1.6789-3.75 3.75-3.75s3.75 1.67893 3.75 3.75-1.6789 3.75-3.75 3.75-3.75-1.67893-3.75-3.75z"/><path d="m5 12.75c-1.24264 0-2.25 1.0074-2.25 2.25s1.00736 2.25 2.25 2.25 2.25-1.0074 2.25-2.25-1.00736-2.25-2.25-2.25zm-3.75 2.25c0-2.0711 1.67893-3.75 3.75-3.75s3.75 1.6789 3.75 3.75-1.67893 3.75-3.75 3.75-3.75-1.6789-3.75-3.75z"/><path d="m20 23.75c-1.2426 0-2.25 1.0074-2.25 2.25s1.0074 2.25 2.25 2.25 2.25-1.0074 2.25-2.25-1.0074-2.25-2.25-2.25zm-3.75 2.25c0-2.0711 1.6789-3.75 3.75-3.75s3.75 1.6789 3.75 3.75-1.6789 3.75-3.75 3.75-3.75-1.6789-3.75-3.75z"/><path d="m26 6.75c-1.2426 0-2.25 1.00736-2.25 2.25 0 1.2426 1.0074 2.25 2.25 2.25s2.25-1.0074 2.25-2.25c0-1.24264-1.0074-2.25-2.25-2.25zm-3.75 2.25c0-2.07107 1.6789-3.75 3.75-3.75s3.75 1.67893 3.75 3.75c0 2.0711-1.6789 3.75-3.75 3.75s-3.75-1.6789-3.75-3.75z"/><path d="m17.1767 6.58928c.1094-.39949.522-.63459.9215-.52511l5.2 1.425c.3995.10947.6346.52206.5251.92155-.1094.39948-.522.63459-.9215.52511l-5.2-1.425c-.3995-.10947-.6346-.52207-.5251-.92155z"/><path d="m13.3335 7.51189c.2764.30843.2505.7826-.0579 1.05908l-5.54999 4.97503c-.30843.2765-.7826.2505-1.05908-.0579s-.25058-.7826.05786-1.0591l5.55001-4.97497c.3084-.27648.7826-.25058 1.0591.05786z"/><path d="m6.82039 16.3312c.24509-.3339.71447-.4059 1.04839-.1608l10.15002 7.45c.3339.2451.4059.7145.1608 1.0484s-.7145.4059-1.0484.1608l-10.14998-7.45c-.33392-.2451-.40593-.7145-.16083-1.0484z"/><path d="m25.2493 11.1176c.3907.1377.5957.566.4581.9567l-4 11.35c-.1377.3907-.566.5957-.9567.4581-.3907-.1377-.5957-.566-.4581-.9567l4-11.35c.1377-.3907.566-.5957.9567-.4581z"/></g></svg>